<svg width="1600" height="900" viewBox="0 0 1600 900" fill="none" xmlns="http://www.w3.org/2000/svg">
  <defs>
    <linearGradient id="bg" x1="0" y1="0" x2="1" y2="1">
      <stop offset="0" stop-color="#ffffff"/>
      <stop offset="1" stop-color="#f9fafb"/>
    </linearGradient>
    <radialGradient id="g" cx="0" cy="0" r="1" gradientUnits="userSpaceOnUse" gradientTransform="translate(1200 180) rotate(130) scale(900 520)">
      <stop stop-color="rgba(220,38,38,0.14)"/>
      <stop offset="1" stop-color="rgba(220,38,38,0)"/>
    </radialGradient>
  </defs>

  <rect width="1600" height="900" fill="url(#bg)"/>
  <rect width="1600" height="900" fill="url(#g)"/>

  <g font-family="Arial, Helvetica, sans-serif">
    <text x="200" y="180" font-size="54" font-weight="900" fill="#dc2626">OUR LOCATION STATES</text>
    <text x="200" y="230" font-size="18" font-weight="600" fill="#6b7280">Placeholder map graphic — replace with your exact India-map artwork anytime.</text>
  </g>

  <!-- Simplified India silhouette placeholder (abstract) -->
  <path d="M650 300C700 260 770 250 840 270C920 292 970 340 1000 390C1030 440 1050 520 1040 580C1030 650 980 700 910 730C840 760 760 760 700 720C640 680 610 620 600 550C588 470 600 350 650 300Z" fill="#6b7280" opacity="0.9"/>
  <path d="M720 285C770 260 820 262 870 285" stroke="rgba(255,255,255,0.35)" stroke-width="6" stroke-linecap="round"/>
  <path d="M650 420C720 450 820 450 980 420" stroke="rgba(255,255,255,0.25)" stroke-width="6" stroke-linecap="round"/>
  <path d="M640 520C720 560 830 570 980 540" stroke="rgba(255,255,255,0.22)" stroke-width="6" stroke-linecap="round"/>

  <!-- Location pins -->
  <g>
    <circle cx="780" cy="360" r="20" fill="white" stroke="rgba(17,24,39,0.18)" stroke-width="3"/>
    <circle cx="780" cy="360" r="7" fill="#dc2626"/>

    <circle cx="690" cy="450" r="20" fill="white" stroke="rgba(17,24,39,0.18)" stroke-width="3"/>
    <circle cx="690" cy="450" r="7" fill="#dc2626"/>

    <circle cx="890" cy="450" r="20" fill="white" stroke="rgba(17,24,39,0.18)" stroke-width="3"/>
    <circle cx="890" cy="450" r="7" fill="#dc2626"/>

    <circle cx="800" cy="560" r="20" fill="white" stroke="rgba(17,24,39,0.18)" stroke-width="3"/>
    <circle cx="800" cy="560" r="7" fill="#dc2626"/>

    <circle cx="930" cy="560" r="20" fill="white" stroke="rgba(17,24,39,0.18)" stroke-width="3"/>
    <circle cx="930" cy="560" r="7" fill="#dc2626"/>
  </g>

  <g font-family="Arial, Helvetica, sans-serif">
    <text x="200" y="790" font-size="18" font-weight="700" fill="#111827">Maharashtra, Gujarat, Rajasthan, M.P, Goa, Karnataka, Haryana, Punjab,</text>
    <text x="200" y="820" font-size="18" font-weight="700" fill="#111827">U.P., Himachal Pradesh, Tamil Nadu, Telangana, West Bengal &amp; Assam</text>
  </g>
</svg>
