<svg width="1600" height="900" viewBox="0 0 1600 900" fill="none" xmlns="http://www.w3.org/2000/svg">
  <defs>
    <linearGradient id="bg" x1="0" y1="0" x2="1" y2="1">
      <stop offset="0" stop-color="#f9fafb"/>
      <stop offset="0.65" stop-color="#ffffff"/>
      <stop offset="1" stop-color="#fee2e2"/>
    </linearGradient>
    <radialGradient id="glow" cx="0" cy="0" r="1" gradientUnits="userSpaceOnUse" gradientTransform="translate(1320 220) rotate(130) scale(900 520)">
      <stop stop-color="rgba(220,38,38,0.18)"/>
      <stop offset="1" stop-color="rgba(220,38,38,0)"/>
    </radialGradient>
  </defs>

  <rect width="1600" height="900" fill="url(#bg)"/>
  <rect width="1600" height="900" fill="url(#glow)"/>

  <g opacity="0.9">
    <rect x="120" y="120" width="1360" height="660" rx="28" fill="white" stroke="rgba(17,24,39,0.10)"/>
  </g>

  <rect x="1240" y="160" width="160" height="160" rx="28" fill="#dc2626"/>
  <g transform="translate(1278 198)">
    <rect width="84" height="84" rx="20" fill="white" opacity="0.12"/>
    <path d="M42 14L64 22V40C64 56 52 70 42 74C32 70 20 56 20 40V22L42 14Z" fill="white"/>
    <path d="M38 46L30 38L26 42L38 54L60 32L56 28L38 46Z" fill="#dc2626"/>
  </g>

  <g font-family="Arial, Helvetica, sans-serif">
    <text x="220" y="250" font-size="64" font-weight="900" fill="#dc2626">WHY CHOOSE US?</text>
    <text x="220" y="310" font-size="22" font-weight="600" fill="#4b5563">Replace this placeholder with your real team photo if desired.</text>

    <g fill="#111827" font-size="18" font-weight="600" opacity="0.85">
      <text x="220" y="400">Nationwide presence • Compliance-focused • Operational strength • 24/7 support</text>
    </g>

    <g fill="#6b7280" font-size="16" font-weight="500">
      <text x="220" y="450">This banner is a lightweight placeholder asset for the Why Choose Us page.</text>
    </g>
  </g>
</svg>
